<svg xmlns="http://www.w3.org/2000/svg" width="780" height="440" viewBox="0 0 780 440" fill="none"><g clip-path="url(#clip0_130602_82)"><rect width="780" height="440" fill="url(#paint0_radial_130602_82)"></rect><path d="M543.41 211.56H539.59C538.16 211.56 537 212.72 537 214.15V267.47C537 268.9 538.16 270.06 539.59 270.06H543.41C544.84 270.06 546 268.9 546 267.47V214.15C546 212.72 544.84 211.56 543.41 211.56Z" fill="#6C2277" stroke="#040404" stroke-width="1.5" stroke-miterlimit="10"></path><path d="M241.81 195.31H237.19C235.98 195.31 235 196.29 235 197.5V235.12C235 236.329 235.98 237.31 237.19 237.31H241.81C243.02 237.31 244 236.329 244 235.12V197.5C244 196.29 243.02 195.31 241.81 195.31Z" fill="#6C2277" stroke="#040404" stroke-width="1.5" stroke-miterlimit="10"></path><path d="M241.81 244.31H237.19C235.98 244.31 235 245.29 235 246.5V284.12C235 285.329 235.98 286.31 237.19 286.31H241.81C243.02 286.31 244 285.329 244 284.12V246.5C244 245.29 243.02 244.31 241.81 244.31Z" fill="#6C2277" stroke="#040404" stroke-width="1.5" stroke-miterlimit="10"></path><path d="M274.89 70.48H498.5C515.59 70.48 529.44 84.33 529.44 101.42V636.97C529.44 654.06 515.59 667.91 498.5 667.91H276.46C259.41 667.91 245.57 654.11 245.52 637.06L243.95 101.51C243.9 84.39 257.76 70.48 274.89 70.48Z" fill="#6C2277"></path><path d="M498.49 72.34C514.52 72.34 527.57 85.38 527.57 101.42V636.97C527.57 653 514.53 666.05 498.49 666.05H276.45C260.46 666.05 247.42 653.04 247.37 637.06L245.8 101.51C245.78 93.73 248.79 86.41 254.29 80.89C259.79 75.38 267.1 72.34 274.88 72.34H498.49Z" fill="#C7DBF9"></path><path d="M239 639.53C239 664.29 259.14 684.44 283.91 684.44H499.19C523 684.44 542.36 665.07 542.36 641.27V108.17C542.36 84.36 522.99 65 499.19 65H283.77C259.09 65 239.01 85.08 239.01 109.76V639.53H239ZM500.78 666.84H285.16C269.48 666.84 255.73 653.14 255.73 637.53V106.46C255.73 91.13 268.66 79.12 285.16 79.12H311.28C316.13 79.06 318.45 79.35 318.78 86.3C318.92 89.28 319.96 91.79 321.96 93.97C323.91 96.07 326.6 97.73 329.52 98.64C331.38 99.22 333.82 99.89 336.12 99.89H450.06C452.2 99.89 454.57 99.15 456.66 98.5C459.71 97.55 462.32 95.98 464.24 93.96C466.25 91.8 467.26 89.41 467.4 86.46C467.74 79.38 470.13 79.05 475.2 79.1H500.8C516.7 79.1 528.25 90.6 528.25 106.44V637.51C528.25 653.95 516.19 666.82 500.8 666.82L500.78 666.84Z" fill="#6C2277" stroke="#040404" stroke-width="1.5" stroke-miterlimit="10"></path><path d="M357.04 87.23C358.951 87.23 360.5 85.6809 360.5 83.77C360.5 81.8591 358.951 80.31 357.04 80.31C355.129 80.31 353.58 81.8591 353.58 83.77C353.58 85.6809 355.129 87.23 357.04 87.23Z" fill="#040404"></path><path d="M371.68 82.09H428.49C429.13 82.09 429.65 82.61 429.65 83.25C429.65 83.89 429.13 84.41 428.49 84.41H371.68C371.04 84.41 370.52 83.89 370.52 83.25C370.52 82.61 371.04 82.09 371.68 82.09Z" fill="#040404"></path><path d="M389.538 390C400.283 390 408.64 381.643 411.426 373.286H368.049C370.436 381.643 379.191 390 389.538 390Z" fill="#AC44A8" stroke="#040404" stroke-width="1.5" stroke-miterlimit="10" stroke-linejoin="round"></path><path d="M368.083 373.309H411.46C420.613 372.513 427.808 365.748 429.4 357.391H350.175C351.767 365.748 358.93 372.513 368.083 373.309Z" fill="#AC44A8" stroke="#040404" stroke-width="1.5" stroke-miterlimit="10" stroke-linejoin="round"></path><path d="M429.4 342.65V357.5H350.193V342.65H429.4Z" fill="#AC44A8" stroke="#040404" stroke-width="1.5" stroke-miterlimit="10" stroke-linejoin="round"></path><path d="M429.4 328.333H350.193V343.057H429.4V328.333Z" fill="#AC44A8" stroke="#040404" stroke-width="1.5" stroke-miterlimit="10" stroke-linejoin="round"></path><path d="M452.06 276.592C454.05 274.603 455.642 272.613 457.234 270.225C469.57 252.715 474.744 231.624 471.958 210.93C471.958 210.134 471.56 209.338 471.56 208.144C471.162 206.951 471.162 205.359 470.764 204.165C470.366 202.971 470.366 201.379 469.968 200.185C469.968 199.389 469.57 198.991 469.57 198.196C459.621 165.961 430.969 141.686 395.949 139.298C391.969 138.901 387.99 138.901 384.01 139.298C338.246 142.482 304.022 182.277 307.205 228.042C308.797 249.134 317.95 268.633 333.47 282.96C344.215 292.909 350.184 306.837 350.582 321.163V327.928H429.377V321.163C429.377 319.969 429.377 319.173 429.377 317.98C429.377 317.184 429.377 316.388 429.377 315.99C429.377 314.796 429.775 313.602 429.775 312.806C429.775 312.01 429.775 311.612 430.173 310.816C430.571 309.623 430.571 308.827 430.969 307.633C430.969 306.837 431.367 306.439 431.367 305.643C431.765 304.449 432.163 303.653 432.561 302.459C432.959 301.664 432.959 301.266 433.357 300.47C433.754 299.276 434.152 298.48 434.948 297.684C435.346 296.888 435.346 296.49 435.744 295.694C436.142 294.898 436.938 293.704 437.734 292.909C438.132 292.511 438.53 291.715 438.928 291.317C439.724 290.521 440.52 289.327 440.918 288.531C441.316 288.133 441.714 287.337 442.111 286.939C443.305 285.745 444.499 284.154 446.091 282.96C448.081 280.97 450.071 278.98 452.06 276.592C452.06 276.99 452.06 276.99 452.06 276.592Z" fill="white"></path><path d="M452.06 276.592C454.05 274.603 455.642 272.613 457.234 270.225C469.57 252.715 474.744 231.624 471.958 210.93C471.958 210.134 471.56 209.338 471.56 208.144C471.162 206.951 471.162 205.359 470.764 204.165C470.366 202.971 470.366 201.379 469.968 200.185C469.968 199.389 469.57 198.991 469.57 198.196C459.621 165.961 430.969 141.686 395.949 139.298C391.969 138.901 387.99 138.901 384.01 139.298C338.246 142.482 304.022 182.277 307.205 228.042C308.797 249.134 317.95 268.633 333.47 282.96C344.215 292.909 350.184 306.837 350.582 321.163V327.928H429.377V321.163C429.377 319.969 429.377 319.173 429.377 317.98C429.377 317.184 429.377 316.388 429.377 315.99C429.377 314.796 429.775 313.602 429.775 312.806C429.775 312.01 429.775 311.612 430.173 310.816C430.571 309.623 430.571 308.827 430.969 307.633C430.969 306.837 431.367 306.439 431.367 305.643C431.765 304.449 432.163 303.653 432.561 302.459C432.959 301.664 432.959 301.266 433.357 300.47C433.754 299.276 434.152 298.48 434.948 297.684C435.346 296.888 435.346 296.49 435.744 295.694C436.142 294.898 436.938 293.704 437.734 292.909C438.132 292.511 438.53 291.715 438.928 291.317C439.724 290.521 440.52 289.327 440.918 288.531C441.316 288.133 441.714 287.337 442.111 286.939C443.305 285.745 444.499 284.154 446.091 282.96C448.081 280.97 450.071 278.98 452.06 276.592ZM452.06 276.592C452.06 276.99 452.06 276.99 452.06 276.592Z" stroke="#040404" stroke-width="1.5" stroke-linecap="round" stroke-linejoin="round"></path><path d="M558 176.4L547.763 137.807L648.442 80L566.388 147.822L558 176.4Z" fill="white" stroke="#040404" stroke-width="1.5" stroke-linejoin="round"></path><path d="M614 133L558 176.5L566.564 145.537L614 133Z" fill="white" stroke="#040404" stroke-width="1.5" stroke-linejoin="round"></path><path d="M599.947 190.694L566.563 145.538L648.5 80L599.947 190.694Z" fill="white" stroke="#040404" stroke-width="1.5" stroke-linejoin="round"></path><path d="M648.5 80L548.642 140.618L507 135.347L648.5 80Z" fill="white" stroke="#040404" stroke-width="1.5" stroke-linejoin="round"></path><path d="M659.312 249L684.268 223.203C690.714 216.648 690.506 206.075 684.06 199.732C677.613 193.388 667.423 193.388 660.976 199.943L658.896 202.058L656.816 199.943C650.369 193.599 640.179 193.599 633.732 199.943C627.286 206.498 627.493 217.071 633.94 223.414L659.312 249Z" fill="#EC9AF1" stroke="#040404" stroke-width="1.5" stroke-miterlimit="10"></path><path d="M390.5 283C423.913 283 451 255.913 451 222.5C451 189.087 423.913 162 390.5 162C357.087 162 330 189.087 330 222.5C330 255.913 357.087 283 390.5 283Z" fill="#AC44A8" stroke="#040404" stroke-width="1.5" stroke-miterlimit="10" stroke-linecap="round" stroke-linejoin="round"></path><path d="M390.498 271.424C417.872 271.424 440.063 249.233 440.063 221.859C440.063 194.484 417.872 172.293 390.498 172.293C363.124 172.293 340.933 194.484 340.933 221.859C340.933 249.233 363.124 271.424 390.498 271.424Z" fill="white" stroke="#040404" stroke-width="1.5" stroke-miterlimit="10" stroke-linecap="round" stroke-linejoin="round"></path><path d="M390.337 260.117C411.525 260.117 428.702 242.94 428.702 221.751C428.702 200.562 411.525 183.385 390.337 183.385C369.148 183.385 351.971 200.562 351.971 221.751C351.971 242.94 369.148 260.117 390.337 260.117Z" fill="#AC44A8" stroke="#040404" stroke-width="1.5" stroke-miterlimit="10" stroke-linecap="round" stroke-linejoin="round"></path><path d="M390.501 247.019C404.126 247.019 415.17 235.974 415.17 222.349C415.17 208.725 404.126 197.68 390.501 197.68C376.877 197.68 365.832 208.725 365.832 222.349C365.832 235.974 376.877 247.019 390.501 247.019Z" fill="white" stroke="#040404" stroke-width="1.5" stroke-miterlimit="10" stroke-linecap="round" stroke-linejoin="round"></path><path d="M390.501 233.319C396.686 233.319 401.7 228.305 401.7 222.119C401.7 215.934 396.686 210.92 390.501 210.92C384.315 210.92 379.301 215.934 379.301 222.119C379.301 228.305 384.315 233.319 390.501 233.319Z" fill="#AC44A8" stroke="#040404" stroke-width="1.5" stroke-miterlimit="10" stroke-linecap="round" stroke-linejoin="round"></path><circle cx="185.5" cy="336.5" r="36.75" fill="white" stroke="#040404" stroke-width="1.5"></circle><path d="M206.083 341.935L204.625 342.333L205.553 343.526C205.95 344.056 206.215 344.718 206.215 345.381C206.215 346.971 205.155 348.164 203.565 348.429L202.107 348.694L202.77 350.019C203.035 350.417 203.167 350.947 203.167 351.477C203.167 353.068 201.842 354.525 200.251 354.525H182.228C182.228 354.525 179.975 354.525 178.384 353.068C177.987 352.803 177.722 352.537 177.324 352.405L176.927 352.272V335.706L178.782 334.116L185.143 322.321C185.408 321.923 185.673 321.393 185.806 320.863C185.938 320.333 185.938 319.803 185.938 319.273L185.408 312.647C185.806 312.381 186.336 312.249 186.866 312.249C189.649 312.249 191.902 316.622 191.902 320.201C191.902 320.731 191.902 321.261 191.77 321.658L190.709 328.815H204.492C205.42 328.815 206.215 329.213 206.878 329.875C207.408 330.405 207.806 331.2 207.806 331.996C207.806 332.923 207.408 333.851 206.613 334.514L205.288 335.441L206.745 336.237C207.673 336.767 208.336 337.827 208.336 338.887C208.336 340.345 207.408 341.538 206.083 341.935Z" fill="white" stroke="#040404" stroke-width="1.5" stroke-miterlimit="10"></path><path d="M177.722 333.055H165.397V354.79H177.722V333.055Z" fill="#205BC3" stroke="#040404" stroke-width="1.5" stroke-miterlimit="10"></path><path d="M137.846 288.691C162.613 288.691 182.691 268.613 182.691 243.846C182.691 219.078 162.613 199 137.846 199C113.078 199 93 219.078 93 243.846C93 268.613 113.078 288.691 137.846 288.691Z" fill="white" stroke="#040404" stroke-width="1.5" stroke-miterlimit="10" stroke-linecap="round" stroke-linejoin="round"></path><path d="M108.062 234.117C108.062 227.784 113.196 222.65 119.529 222.65H156.162C162.495 222.65 167.629 227.784 167.629 234.117V253.429C167.629 259.762 162.495 264.896 156.162 264.896H146.666C146.055 264.896 145.479 265.179 145.106 265.662L140.153 272.074C138.986 273.585 136.706 273.585 135.539 272.074L130.586 265.662C130.212 265.179 129.636 264.896 129.025 264.896H119.529C113.196 264.896 108.062 259.762 108.062 253.429V234.117Z" fill="#EC9AF1" stroke="#040404" stroke-width="1.5"></path><circle cx="123.533" cy="244.8" r="4.02081" fill="white" stroke="#040404" stroke-width="1.5"></circle><circle cx="136.891" cy="244.8" r="4.02081" fill="white" stroke="#040404" stroke-width="1.5"></circle><circle cx="150.25" cy="244.8" r="4.02081" fill="white" stroke="#040404" stroke-width="1.5"></circle><circle cx="609.348" cy="307.348" r="48.5979" fill="white" stroke="#040404" stroke-width="1.5"></circle><path d="M597.823 284.511V288.189H601.46V285.01C601.46 283.488 602.694 282.254 604.216 282.254H614.306C615.828 282.254 617.062 283.488 617.062 285.01V288.189H620.794V284.511C620.794 281.467 618.327 279 615.283 279H603.334C600.29 279 597.823 281.467 597.823 284.511Z" fill="#A1C2F8" stroke="#040404" stroke-width="1.5" stroke-linecap="round" stroke-linejoin="round"></path><rect x="577.516" y="293.916" width="63.9686" height="37.1686" rx="6.25" fill="#C7DBF9" stroke="#040404" stroke-width="1.5"></rect><path d="M576.75 292.274C576.75 289.375 579.101 287.024 582 287.024H637C639.899 287.024 642.25 289.375 642.25 292.274V300.403L609.686 312.276L576.75 300.401V292.274Z" fill="#C7DBF9" stroke="#040404" stroke-width="1.5"></path><rect x="603.167" y="308.847" width="12.6657" height="5.39143" rx="2.69571" fill="#205BC3" stroke="#040404" stroke-width="1.5"></rect><path d="M203 193C233.376 193 258 168.376 258 138C258 107.624 233.376 83 203 83C172.624 83 148 107.624 148 138C148 168.376 172.624 193 203 193Z" fill="white" stroke="#040404" stroke-width="1.5" stroke-linecap="round" stroke-linejoin="round"></path><path d="M211.24 131.212H194.898V160.992H211.24V131.212Z" fill="#A1C2F8" stroke="#040404" stroke-width="1.5" stroke-miterlimit="10" stroke-linecap="round" stroke-linejoin="round"></path><path d="M234.167 115.991H217.826V160.99H234.167V115.991Z" fill="#205BC3" stroke="#040404" stroke-width="1.5" stroke-miterlimit="10" stroke-linecap="round" stroke-linejoin="round"></path><path d="M188.176 139.634H171.834V160.984H188.176V139.634Z" fill="#C7DBF9" stroke="#040404" stroke-width="1.5" stroke-miterlimit="10" stroke-linecap="round" stroke-linejoin="round"></path></g><defs><radialGradient id="paint0_radial_130602_82" cx="0" cy="0" r="1" gradientUnits="userSpaceOnUse" gradientTransform="translate(390 659.5) rotate(90) scale(558 989.182)"><stop stop-color="#D8D7F9"></stop><stop offset="1" stop-color="#AC44A8"></stop></radialGradient><clipPath id="clip0_130602_82"><rect width="780" height="440" fill="white"></rect></clipPath></defs></svg>