<svg width="26" height="27" viewBox="0 0 26 27" fill="none" xmlns="http://www.w3.org/2000/svg">
<path fill-rule="evenodd" clip-rule="evenodd" d="M13.0007 2.25C7.01757 2.25 2.1673 7.28682 2.1673 13.5C2.1673 19.7132 7.01757 24.75 13.0007 24.75C18.9837 24.75 23.834 19.7132 23.834 13.5C23.834 7.28682 18.9837 2.25 13.0007 2.25ZM13.0007 4.50002C17.7871 4.50002 21.6673 8.52945 21.6673 13.5C21.6673 18.4706 17.7871 22.5 13.0007 22.5C8.21418 22.5 4.33398 18.4706 4.33398 13.5C4.33398 8.52945 8.21418 4.50002 13.0007 4.50002ZM13.0007 7.87502C10.0091 7.87502 7.58398 10.3934 7.58398 13.5C7.58398 16.6066 10.0091 19.125 13.0007 19.125C15.9922 19.125 18.4173 16.6066 18.4173 13.5C18.4173 10.3934 15.9922 7.87502 13.0007 7.87502Z" fill="#8C52FF"/>
</svg>
