<svg width="21" height="21" viewBox="0 0 21 21" fill="none" xmlns="http://www.w3.org/2000/svg">
<path d="M14.9792 3.87267V2.78101C14.9792 2.61525 14.9133 2.45627 14.7961 2.33906C14.6789 2.22185 14.5199 2.15601 14.3542 2.15601C14.1884 2.15601 14.0294 2.22185 13.9122 2.33906C13.795 2.45627 13.7292 2.61525 13.7292 2.78101V3.82267H6.64583V2.78101C6.64583 2.61525 6.57999 2.45627 6.46278 2.33906C6.34556 2.22185 6.18659 2.15601 6.02083 2.15601C5.85507 2.15601 5.6961 2.22185 5.57889 2.33906C5.46168 2.45627 5.39583 2.61525 5.39583 2.78101V3.87267C4.46694 4.02291 3.6217 4.49847 3.01109 5.21441C2.40048 5.93035 2.06427 6.84004 2.0625 7.78101V15.0727C2.0625 15.5925 2.16489 16.1072 2.36381 16.5875C2.56274 17.0677 2.8543 17.5041 3.22187 17.8716C3.9642 18.614 4.97102 19.031 6.02083 19.031H14.3542C14.874 19.031 15.3887 18.9286 15.869 18.7297C16.3492 18.5308 16.7856 18.2392 17.1531 17.8716C17.5207 17.5041 17.8123 17.0677 18.0112 16.5875C18.2101 16.1072 18.3125 15.5925 18.3125 15.0727V7.78101C18.3107 6.84004 17.9745 5.93035 17.3639 5.21441C16.7533 4.49847 15.9081 4.02291 14.9792 3.87267ZM17.0625 8.82267H3.3125V7.78101C3.31332 7.17276 3.51949 6.5826 3.89762 6.10617C4.27574 5.62973 4.80366 5.29493 5.39583 5.15601V6.11434C5.39583 6.2801 5.46168 6.43907 5.57889 6.55628C5.6961 6.67349 5.85507 6.73934 6.02083 6.73934C6.18659 6.73934 6.34556 6.67349 6.46278 6.55628C6.57999 6.43907 6.64583 6.2801 6.64583 6.11434V5.07267H13.7292V6.11434C13.7292 6.2801 13.795 6.43907 13.9122 6.55628C14.0294 6.67349 14.1884 6.73934 14.3542 6.73934C14.5199 6.73934 14.6789 6.67349 14.7961 6.55628C14.9133 6.43907 14.9792 6.2801 14.9792 6.11434V5.15601C15.5713 5.29493 16.0993 5.62973 16.4774 6.10617C16.8555 6.5826 17.0617 7.17276 17.0625 7.78101V8.82267Z" fill="#8C52FF"/>
</svg>
