<svg width="53" height="47" viewBox="0 0 53 47" fill="none" xmlns="http://www.w3.org/2000/svg">
<path d="M48.0312 43.6429H4.96875C2.21938 43.6429 0 41.3936 0 38.6072V8.39289C0 5.60646 2.21938 3.35718 4.96875 3.35718H48.0312C50.7806 3.35718 53 5.60646 53 8.39289V38.6072C53 41.3936 50.7806 43.6429 48.0312 43.6429ZM4.96875 6.71432C4.04125 6.71432 3.3125 7.45289 3.3125 8.39289V38.6072C3.3125 39.5472 4.04125 40.2857 4.96875 40.2857H48.0312C48.9588 40.2857 49.6875 39.5472 49.6875 38.6072V8.39289C49.6875 7.45289 48.9588 6.71432 48.0312 6.71432H4.96875Z" fill="white"/>
<path d="M26.5003 30.08C24.1816 30.08 22.0616 29.14 20.4716 27.4278L3.08095 8.69498C2.45158 8.02355 2.4847 6.94927 3.1472 6.31141C3.8097 5.67355 4.8697 5.70712 5.49908 6.37855L22.8897 25.1114C24.7778 27.1593 28.2228 27.1593 30.111 25.1114L47.5016 6.41212C48.131 5.74069 49.191 5.70712 49.8535 6.34498C50.516 6.98284 50.5491 8.05712 49.9197 8.72855L32.5291 27.4614C30.9391 29.1736 28.8191 30.1136 26.5003 30.1136V30.08Z" fill="white"/>
</svg>
