<svg width="61" height="37" viewBox="0 0 61 37" fill="none" xmlns="http://www.w3.org/2000/svg">
<g clip-path="url(#clip0_66_370)">
<path d="M26.5885 -0.000148602C26.5885 0.854176 26.6563 1.56996 26.5577 2.26111C26.5162 2.55512 26.1729 2.87068 25.8912 3.04771C24.5258 3.91434 23.0435 4.60704 21.7705 5.60144C17.6512 8.82169 15.2099 13.061 15.076 18.5687C15.039 20.1311 15.6147 20.5236 16.9262 19.9125C20.7176 18.1546 24.7952 19.1859 26.9703 22.4524C29.3424 26.0174 29.0083 30.7647 26.1652 33.8772C22.5355 37.8517 16.5599 37.9718 12.4391 34.1727C9.97159 31.8976 8.79862 28.9606 8.50615 25.6187C7.5256 14.4264 13.1395 5.19968 23.359 1.14665C24.3704 0.746426 25.4063 0.417008 26.5885 -0.000148602Z" fill="#7562E0"/>
</g>
<g clip-path="url(#clip1_66_370)">
<path d="M50.6451 -0.000148602C50.6451 0.854176 50.7128 1.56996 50.6143 2.26111C50.5727 2.55512 50.2294 2.87068 49.9477 3.04771C48.5824 3.91434 47.1 4.60704 45.827 5.60144C41.7078 8.82169 39.2664 13.061 39.1325 18.5687C39.0955 20.1311 39.6712 20.5236 40.9827 19.9125C44.7741 18.1546 48.8517 19.1859 51.0268 22.4524C53.3989 26.0174 53.0649 30.7647 50.2217 33.8772C46.592 37.8517 40.6164 37.9718 36.4956 34.1727C34.0281 31.8976 32.8551 28.9606 32.5627 25.6187C31.5821 14.4264 37.196 5.19968 47.4156 1.14665C48.4269 0.746426 49.4629 0.417008 50.6451 -0.000148602Z" fill="#7562E0"/>
</g>
<defs>
<clipPath id="clip0_66_370">
<rect width="36.9437" height="36.9437" fill="white" transform="translate(36.9434 36.9436) rotate(180)"/>
</clipPath>
<clipPath id="clip1_66_370">
<rect width="36.9437" height="36.9437" fill="white" transform="translate(61 36.9436) rotate(180)"/>
</clipPath>
</defs>
</svg>
