<svg width="44" height="44" viewBox="0 0 44 44" fill="none" xmlns="http://www.w3.org/2000/svg">
<g clip-path="url(#clip0_227_5022)">
<path d="M22.0007 27.2379C22.6885 27.2379 23.3696 27.1024 24.0051 26.8392C24.6406 26.5759 25.218 26.1901 25.7044 25.7038M22.0007 27.2379C20.6115 27.2379 19.2792 26.686 18.2969 25.7037M22.0007 27.2379V31.1667M25.7044 25.7038C26.1907 25.2174 26.5766 24.64 26.8398 24.0045C27.103 23.369 27.2385 22.6879 27.2385 22M25.7044 25.7038L28.4833 28.4827M27.2385 22C27.2385 21.3122 27.103 20.6311 26.8398 19.9956C26.5766 19.3601 26.1907 18.7827 25.7044 18.2963M27.2385 22H31.1673M25.7044 18.2963C25.218 17.81 24.6406 17.4241 24.0051 17.1609C23.3696 16.8977 22.6885 16.7622 22.0007 16.7622M25.7044 18.2963L28.4833 15.5174M22.0007 16.7622C20.6115 16.7622 19.2792 17.3141 18.2969 18.2963M22.0007 16.7622V12.8334M18.2969 18.2963C17.3147 19.2786 16.7628 20.6109 16.7628 22M18.2969 18.2963L15.518 15.5174M16.7628 22C16.7628 23.3892 17.3147 24.7215 18.2969 25.7037M16.7628 22H12.834M18.2969 25.7037L15.518 28.4827M21.128 12.8334H22.8733M27.8655 14.9014L29.0993 16.1352M31.1673 21.1274V22.8727M29.0993 27.8649L27.8655 29.0987M22.8733 31.1667H21.128M16.1358 29.0987L14.902 27.8649M12.834 22.8727V21.1274M14.902 16.1352L16.1358 14.9014M1.83398 1.83337L11.0007 11M1.83398 1.83337V9.16671M1.83398 1.83337H9.16732M42.1673 1.83337L33.0007 11M42.1673 1.83337H34.834M42.1673 1.83337V9.16671M42.1673 42.1667L33.0007 33M42.1673 42.1667V34.8334M42.1673 42.1667H34.834M1.83398 42.1667L11.0007 33M1.83398 42.1667H9.16732M1.83398 42.1667V34.8334" stroke="#8C52FF" stroke-width="3" stroke-linecap="round" stroke-linejoin="round"/>
</g>
<defs>
<clipPath id="clip0_227_5022">
<rect width="44" height="44" fill="white"/>
</clipPath>
</defs>
</svg>
