<svg width="44" height="44" viewBox="0 0 44 44" fill="none" xmlns="http://www.w3.org/2000/svg">
<path d="M22.0007 27.2385C22.6885 27.2385 23.3696 27.103 24.0051 26.8398C24.6406 26.5766 25.218 26.1907 25.7044 25.7044M22.0007 27.2385C20.6115 27.2385 19.2792 26.6866 18.2969 25.7044M22.0007 27.2385V31.1673M25.7044 25.7044C26.1907 25.218 26.5766 24.6406 26.8398 24.0051C27.103 23.3696 27.2385 22.6885 27.2385 22.0007M25.7044 25.7044L28.4833 28.4833M27.2385 22.0007C27.2385 21.3128 27.103 20.6317 26.8398 19.9962C26.5766 19.3607 26.1907 18.7833 25.7044 18.2969M27.2385 22.0007H31.1673M25.7044 18.2969C25.218 17.8106 24.6406 17.4248 24.0051 17.1615C23.3696 16.8983 22.6885 16.7628 22.0007 16.7628M25.7044 18.2969L28.4833 15.518M22.0007 16.7628C20.6115 16.7628 19.2792 17.3147 18.2969 18.2969M22.0007 16.7628V12.834M18.2969 18.2969C17.3147 19.2792 16.7628 20.6115 16.7628 22.0007M18.2969 18.2969L15.518 15.518M16.7628 22.0007C16.7628 23.3898 17.3147 24.7221 18.2969 25.7044M16.7628 22.0007H12.834M18.2969 25.7044L15.518 28.4833M21.128 12.834H22.8733M27.8655 14.902L29.0993 16.1358M31.1673 21.128V22.8733M29.0993 27.8655L27.8655 29.0993M22.8733 31.1673H21.128M16.1358 29.0993L14.902 27.8655M12.834 22.8733V21.128M14.902 16.1358L16.1358 14.902M1.83398 1.83398L11.0007 11.0007M1.83398 1.83398V9.16732M1.83398 1.83398H9.16732M42.1673 1.83398L33.0007 11.0007M42.1673 1.83398H34.834M42.1673 1.83398V9.16732M42.1673 42.1673L33.0007 33.0007M42.1673 42.1673V34.834M42.1673 42.1673H34.834M1.83398 42.1673L11.0007 33.0007M1.83398 42.1673H9.16732M1.83398 42.1673V34.834" stroke="white" stroke-width="3" stroke-linecap="round" stroke-linejoin="round"/>
</svg>
