<svg width="44" height="44" viewBox="0 0 44 44" fill="none" xmlns="http://www.w3.org/2000/svg">
<g clip-path="url(#clip0_338_2186)">
<path d="M21.9987 27.2385C22.6865 27.2385 23.3676 27.103 24.0031 26.8398C24.6386 26.5766 25.216 26.1907 25.7024 25.7044M21.9987 27.2385C20.6095 27.2385 19.2773 26.6866 18.295 25.7044M21.9987 27.2385V31.1673M25.7024 25.7044C26.1888 25.218 26.5746 24.6406 26.8378 24.0051C27.1011 23.3696 27.2365 22.6885 27.2365 22.0007M25.7024 25.7044L28.4814 28.4833M27.2365 22.0007C27.2365 21.3128 27.1011 20.6317 26.8378 19.9962C26.5746 19.3607 26.1888 18.7833 25.7024 18.2969M27.2365 22.0007H31.1654M25.7024 18.2969C25.216 17.8106 24.6386 17.4248 24.0031 17.1615C23.3676 16.8983 22.6865 16.7628 21.9987 16.7628M25.7024 18.2969L28.4814 15.518M21.9987 16.7628C20.6095 16.7628 19.2773 17.3147 18.295 18.2969M21.9987 16.7628V12.834M18.295 18.2969C17.3127 19.2792 16.7609 20.6115 16.7609 22.0007M18.295 18.2969L15.516 15.518M16.7609 22.0007C16.7609 23.3898 17.3127 24.7221 18.295 25.7044M16.7609 22.0007H12.832M18.295 25.7044L15.516 28.4833M21.126 12.834H22.8714M27.8635 14.902L29.0974 16.1358M31.1654 21.128V22.8733M29.0974 27.8655L27.8635 29.0993M22.8714 31.1673H21.126M16.1339 29.0993L14.9 27.8655M12.832 22.8733V21.128M14.9 16.1358L16.1339 14.902M1.83203 1.83398L10.9987 11.0007M1.83203 1.83398V9.16732M1.83203 1.83398H9.16537M42.1654 1.83398L32.9987 11.0007M42.1654 1.83398H34.832M42.1654 1.83398V9.16732M42.1654 42.1673L32.9987 33.0007M42.1654 42.1673V34.834M42.1654 42.1673H34.832M1.83203 42.1673L10.9987 33.0007M1.83203 42.1673H9.16537M1.83203 42.1673V34.834" stroke="#FFB730" stroke-width="3" stroke-linecap="round" stroke-linejoin="round"/>
</g>
<defs>
<clipPath id="clip0_338_2186">
<rect width="44" height="44" fill="white"/>
</clipPath>
</defs>
</svg>
