<svg width="98" height="98" viewBox="0 0 98 98" fill="none" xmlns="http://www.w3.org/2000/svg">
<path d="M87.9154 83.5833L68.748 64.4197C74.3035 57.75 77.0737 49.1952 76.4825 40.535C75.8912 31.8748 71.9839 23.776 65.5735 17.9232C59.163 12.0704 50.7429 8.9144 42.0648 9.11162C33.3867 9.30885 25.1187 12.8441 18.9807 18.9821C12.8428 25.12 9.3075 33.388 9.11028 42.0662C8.91305 50.7443 12.0691 59.1644 17.9218 65.5748C23.7746 71.9853 31.8735 75.8925 40.5337 76.4838C49.1939 77.0751 57.7486 74.3048 64.4184 68.7493L83.582 87.9167C83.8665 88.2013 84.2043 88.427 84.5761 88.581C84.9478 88.735 85.3463 88.8142 85.7487 88.8142C86.1511 88.8142 86.5495 88.735 86.9213 88.581C87.2931 88.427 87.6309 88.2013 87.9154 87.9167C88.1999 87.6322 88.4256 87.2944 88.5796 86.9226C88.7336 86.5509 88.8129 86.1524 88.8129 85.75C88.8129 85.3476 88.7336 84.9492 88.5796 84.5774C88.4256 84.2056 88.1999 83.8678 87.9154 83.5833ZM15.3112 42.875C15.3112 37.4237 16.9277 32.0947 19.9563 27.5621C22.9849 23.0295 27.2896 19.4967 32.326 17.4106C37.3624 15.3244 42.9043 14.7786 48.2509 15.8421C53.5975 16.9056 58.5086 19.5307 62.3633 23.3854C66.218 27.2401 68.8431 32.1512 69.9066 37.4978C70.9701 42.8444 70.4243 48.3863 68.3381 53.4227C66.252 58.4591 62.7192 62.7638 58.1866 65.7924C53.654 68.821 48.325 70.4375 42.8737 70.4375C35.5661 70.4294 28.5602 67.5229 23.393 62.3557C18.2258 57.1885 15.3193 50.1826 15.3112 42.875Z" fill="white"/>
</svg>
