<svg width="77" height="73" viewBox="0 0 77 73" fill="none" xmlns="http://www.w3.org/2000/svg">
<path d="M13.5228 0.541321L9.69484 4.36388L15.3906 10.0569L19.2132 6.23438L13.5228 0.541321ZM63.4799 0.541321L57.7841 6.23438L61.6094 10.0569L67.3024 4.3666L63.4799 0.541321ZM38.5 2.23782C37.6028 2.24507 36.6966 2.30307 35.7812 2.41182H35.6997C24.6724 3.67604 15.8963 12.5854 14.3711 23.5637C13.1531 32.3996 16.7962 40.4118 22.8672 45.572C25.3502 47.6916 27.0298 50.5998 27.625 53.8098V70.1223H33.8237C34.7699 71.7454 36.4963 72.841 38.5 72.841C40.5037 72.841 42.2301 71.7454 43.1762 70.1223H49.375V59.2473H49.6306V56.0174C49.6306 52.0317 51.7023 48.0134 55.0681 44.8896C59.5703 40.3819 62.9688 33.9792 62.9688 26.625C62.9688 13.1944 51.9143 2.11276 38.5 2.23782ZM38.5 7.67532C49.008 7.52851 57.5312 16.1306 57.5312 26.625C57.5312 32.3181 54.8941 37.3314 51.2428 40.98L51.3298 41.067C47.7027 44.4141 45.3567 48.9215 44.696 53.8125H32.8042C32.2061 49.1526 30.2078 44.6422 26.4315 41.4069C21.6274 37.3287 18.7646 31.1844 19.7216 24.2461C20.9097 15.682 27.8588 8.79545 36.3739 7.85204C37.077 7.75454 37.785 7.69645 38.4946 7.67804L38.5 7.67532ZM0.4375 26.625V32.0625H8.59375V26.625H0.4375ZM68.4062 26.625V32.0625H76.5625V26.625H68.4062ZM15.3906 48.6306L9.69756 54.3209L13.5228 58.1462L19.2105 52.4531L15.3906 48.6306ZM61.6094 48.6306L57.7868 52.4531L63.4772 58.1462L67.3024 54.3209L61.6094 48.6306ZM33.0625 59.25H43.9375V64.6875H33.0625V59.25Z" fill="white"/>
</svg>
