<svg width="84" height="84" viewBox="0 0 84 84" fill="none" xmlns="http://www.w3.org/2000/svg">
<path d="M23.0996 41.7305C40.8551 8.64149 62.9646 8.25999 71.7951 12.2045C75.7396 21.0385 75.3581 43.1445 42.2691 60.9C41.9261 58.926 40.0186 53.76 35.1291 48.8705C30.2396 43.981 25.0736 42.0735 23.0996 41.7305Z" stroke="white" stroke-width="5" stroke-linecap="round" stroke-linejoin="round"/>
<path d="M46.725 59.325C53.1615 62.475 53.8475 68.124 54.74 73.5C54.74 73.5 68.215 63.539 59.5945 49.875M24.675 37.5445C21.525 31.108 15.876 30.422 10.5 29.5295C10.5 29.5295 20.4645 16.0545 34.125 24.675M21.063 52.192C19.271 53.9805 16.226 59.178 18.375 65.625C24.8255 67.774 30.0195 64.729 31.815 62.9405M60.55 29.575C60.55 27.9505 59.9047 26.3926 58.756 25.244C57.6074 24.0953 56.0494 23.45 54.425 23.45C52.8005 23.45 51.2426 24.0953 50.094 25.244C48.9453 26.3926 48.3 27.9505 48.3 29.575C48.3 31.1994 48.9453 32.7573 50.094 33.906C51.2426 35.0547 52.8005 35.7 54.425 35.7C56.0494 35.7 57.6074 35.0547 58.756 33.906C59.9047 32.7573 60.55 31.1994 60.55 29.575Z" stroke="white" stroke-width="5" stroke-linecap="round" stroke-linejoin="round"/>
</svg>
