<svg width="77" height="77" viewBox="0 0 77 77" fill="none" xmlns="http://www.w3.org/2000/svg">
<path d="M33.1247 47.3647C29.1216 46.2009 25.6045 43.769 23.1022 40.4347C20.5999 37.1004 19.2476 33.0439 19.2487 28.875V3.20837H57.7487V32.0834M19.2487 9.62504H3.20703V22.4584C3.20703 30.5081 8.95316 35.2917 16.0404 35.2917H19.2487M64.2745 34.9228C69.7543 33.6555 73.7904 29.2055 73.7904 22.4584V9.62504H57.7487M32.082 60.9584H16.0404V73.7917H52.9362M52.9362 73.7917C47.4053 73.7917 42.101 71.5946 38.1901 67.6837C34.2792 63.7727 32.082 58.4684 32.082 52.9375C32.082 47.4067 34.2792 42.1023 38.1901 38.1914C42.101 34.2805 47.4053 32.0834 52.9362 32.0834C58.4671 32.0834 63.7714 34.2805 67.6823 38.1914C71.5932 42.1023 73.7904 47.4067 73.7904 52.9375C73.7904 58.4684 71.5932 63.7727 67.6823 67.6837C63.7714 71.5946 58.4671 73.7917 52.9362 73.7917ZM64.1654 44.9167L49.7279 59.3542L41.707 51.3334M32.743 49.4854C30.6152 50.5531 28.8263 52.1916 27.5764 54.2177C26.3265 56.2439 25.6648 58.5777 25.6654 60.9584" stroke="white" stroke-width="4.5"/>
</svg>
