<svg width="30" height="29" viewBox="0 0 30 29" fill="none" xmlns="http://www.w3.org/2000/svg">
<path d="M25.7553 9.20742L25.4376 9.9385C25.3879 10.0576 25.3042 10.1592 25.1968 10.2308C25.0895 10.3023 24.9634 10.3405 24.8344 10.3405C24.7054 10.3405 24.5793 10.3023 24.472 10.2308C24.3646 10.1592 24.2808 10.0576 24.2312 9.9385L23.9134 9.20742C23.3548 7.9141 22.3316 6.87715 21.0459 6.30117L20.0656 5.8633C19.9466 5.80858 19.8459 5.72091 19.7752 5.61068C19.7046 5.50045 19.6671 5.37228 19.6671 5.24136C19.6671 5.11044 19.7046 4.98227 19.7752 4.87203C19.8459 4.7618 19.9466 4.67413 20.0656 4.61942L20.9917 4.20738C22.3097 3.61499 23.3503 2.53968 23.8992 1.20296L24.2273 0.413753C24.2753 0.291502 24.359 0.186546 24.4675 0.112569C24.5761 0.0385913 24.7043 -0.000976563 24.8357 -0.000976562C24.967 -0.000976562 25.0953 0.0385913 25.2038 0.112569C25.3123 0.186546 25.3961 0.291502 25.4441 0.413753L25.7708 1.20167C26.3191 2.53864 27.3593 3.61442 28.6771 4.20738L29.6045 4.62071C29.7231 4.67558 29.8235 4.76324 29.8939 4.87333C29.9642 4.98342 30.0016 5.11135 30.0016 5.242C30.0016 5.37266 29.9642 5.50059 29.8939 5.61068C29.8235 5.72077 29.7231 5.80843 29.6045 5.8633L28.6228 6.29988C27.3374 6.87643 26.3147 7.91385 25.7566 9.20742M10.6261 2.58375C13.1353 2.58337 15.559 3.49606 17.4448 5.15151C19.3306 6.80695 20.5495 9.09201 20.8741 11.5802L23.7804 16.1514C23.9716 16.4524 23.9328 16.9006 23.4898 17.0918L20.9594 18.1742V21.9588C20.9594 22.6439 20.6872 23.301 20.2027 23.7854C19.7183 24.2699 19.0612 24.5421 18.3761 24.5421H15.794L15.7927 28.4171H4.16772V23.6457C4.16772 22.1215 3.60455 20.6787 2.56089 19.3767C1.34382 17.8571 0.580819 16.0246 0.359785 14.0902C0.13875 12.1559 0.468677 10.1985 1.31155 8.44348C2.15443 6.68848 3.47596 5.2073 5.1239 4.17058C6.77184 3.13387 8.67914 2.5838 10.6261 2.58375ZM10.6261 5.16709C9.16593 5.16703 7.73549 5.57945 6.49952 6.35684C5.26354 7.13423 4.27232 8.24497 3.64004 9.56109C3.00776 10.8772 2.76015 12.3452 2.92572 13.7959C3.09129 15.2466 3.66331 16.621 4.57589 17.7608C5.98897 19.5227 6.75105 21.5286 6.75105 23.6457V25.8338H13.2094L13.212 21.9588H18.3761V16.4718L20.3781 15.6141L18.3851 12.4818L18.3115 11.9109C18.0672 10.0455 17.1528 8.33262 15.7387 7.09178C14.3246 5.85094 12.5074 5.16684 10.6261 5.16709ZM24.1756 21.9497L26.325 23.3835C27.8842 21.0505 28.7142 18.3065 28.7094 15.5004C28.7085 14.6178 28.6306 13.7567 28.4756 12.9171L25.9659 13.5629C26.0718 14.1941 26.1252 14.8399 26.1261 15.5004C26.1299 17.796 25.451 20.041 24.1756 21.9497Z" fill="white"/>
</svg>
