<svg width="49" height="49" viewBox="0 0 49 49" fill="none" xmlns="http://www.w3.org/2000/svg">
<path d="M29.9789 3.4311C30.0289 3.2436 30.1154 3.06779 30.2334 2.91373C30.3513 2.75966 30.4985 2.63037 30.6665 2.53323C30.8345 2.43609 31.02 2.37302 31.2124 2.34762C31.4048 2.32222 31.6003 2.33499 31.7877 2.38521C35.3541 3.31549 38.608 5.17975 41.2141 7.78593C43.8203 10.3921 45.6846 13.646 46.6149 17.2124C46.6651 17.3998 46.6778 17.5953 46.6525 17.7877C46.6271 17.9801 46.564 18.1656 46.4668 18.3335C46.3697 18.5015 46.2404 18.6487 46.0863 18.7667C45.9323 18.8847 45.7565 18.9712 45.569 19.0211C45.4445 19.0541 45.3163 19.0707 45.1875 19.0704C44.8622 19.0706 44.5459 18.9633 44.2878 18.7653C44.0297 18.5673 43.8442 18.2895 43.7602 17.9752C42.9615 14.9118 41.3604 12.1168 39.1218 9.87826C36.8833 7.6397 34.0882 6.03857 31.0248 5.23989C30.8373 5.1899 30.6615 5.10344 30.5075 4.98546C30.3534 4.86748 30.2241 4.72028 30.127 4.55229C30.0298 4.3843 29.9667 4.19881 29.9413 4.00643C29.9159 3.81405 29.9287 3.61855 29.9789 3.4311ZM29.0561 13.1149C32.6367 14.0697 34.9303 16.3633 35.8852 19.944C35.9692 20.2583 36.1547 20.536 36.4128 20.734C36.6709 20.9321 36.9872 21.0393 37.3125 21.0391C37.4413 21.0394 37.5695 21.0229 37.694 20.9899C37.8815 20.9399 38.0573 20.8534 38.2113 20.7355C38.3654 20.6175 38.4947 20.4703 38.5918 20.3023C38.689 20.1343 38.7521 19.9488 38.7775 19.7564C38.8028 19.564 38.7901 19.3685 38.7399 19.1811C37.5094 14.5767 34.4234 11.4907 29.819 10.2602C29.6315 10.2101 29.4361 10.1974 29.2437 10.2229C29.0514 10.2483 28.8659 10.3114 28.698 10.4085C28.53 10.5057 28.3828 10.6349 28.2648 10.7889C28.1468 10.9429 28.0603 11.1187 28.0102 11.3061C27.9601 11.4935 27.9474 11.689 27.9729 11.8814C27.9983 12.0737 28.0614 12.2591 28.1585 12.4271C28.2556 12.5951 28.3849 12.7423 28.5389 12.8603C28.6929 12.9783 28.8686 13.0648 29.0561 13.1149ZM48.6058 36.986C48.1841 40.203 46.6054 43.1564 44.1647 45.2941C41.724 47.4318 38.5883 48.6076 35.3438 48.6016C16.0746 48.6016 0.398462 32.9254 0.398462 13.6563C0.392246 10.4129 1.56696 7.27813 3.70318 4.83758C5.83941 2.39702 8.79103 0.81759 12.0067 0.394307C12.7469 0.304349 13.4964 0.456985 14.1425 0.829291C14.7886 1.2016 15.2965 1.77347 15.5898 2.45903L20.7824 14.05C21.0117 14.5748 21.1065 15.1484 21.0584 15.719C21.0103 16.2896 20.8207 16.8392 20.5068 17.3182C20.4751 17.3669 20.4406 17.4138 20.4034 17.4584L15.2182 23.6256C15.1867 23.6895 15.1704 23.7598 15.1704 23.831C15.1704 23.9023 15.1867 23.9726 15.2182 24.0365C17.1033 27.8953 21.1491 31.9115 25.062 33.7942C25.1273 33.8239 25.1987 33.8381 25.2704 33.8356C25.3422 33.833 25.4124 33.8138 25.4754 33.7794L31.5515 28.6114C31.5949 28.5738 31.641 28.5392 31.6893 28.5081C32.1661 28.1902 32.7146 27.9962 33.2853 27.9438C33.856 27.8914 34.4307 27.9821 34.9574 28.2078L46.5829 33.4176C47.2593 33.7174 47.8213 34.227 48.1856 34.871C48.5499 35.515 48.6972 36.2592 48.6058 36.9934V36.986ZM45.6797 36.6218C45.688 36.5189 45.6637 36.416 45.6102 36.3276C45.5568 36.2393 45.4769 36.17 45.3819 36.1296L33.754 30.9198C33.6905 30.8953 33.6224 30.8848 33.5544 30.889C33.4865 30.8933 33.4202 30.9122 33.3603 30.9444L27.2867 36.1124C27.2424 36.1493 27.1956 36.1837 27.1488 36.2157C26.6534 36.5461 26.0808 36.7424 25.4869 36.7855C24.893 36.8287 24.2981 36.7171 23.7601 36.4618C19.2419 34.279 14.7383 29.8173 12.5555 25.3408C12.2988 24.806 12.1845 24.2139 12.2237 23.622C12.2629 23.03 12.4544 22.4582 12.7794 21.962C12.8113 21.9127 12.8467 21.8659 12.8853 21.8217L18.0655 15.6472C18.0951 15.5827 18.1105 15.5126 18.1105 15.4417C18.1105 15.3708 18.0951 15.3007 18.0655 15.2362L12.8853 3.64275C12.8511 3.54964 12.7895 3.46904 12.7087 3.41151C12.6279 3.35399 12.5316 3.32221 12.4324 3.32036H12.3758C9.87293 3.65331 7.57676 4.88587 5.91612 6.78789C4.25547 8.68991 3.34389 11.1313 3.35159 13.6563C3.35159 31.2963 17.7038 45.6485 35.3438 45.6485C37.8691 45.6561 40.3108 44.7442 42.2129 43.083C44.115 41.4219 45.3473 39.1251 45.6797 36.6218Z" fill="white"/>
</svg>
