<svg width="28" height="23" viewBox="0 0 28 23" fill="none" xmlns="http://www.w3.org/2000/svg">
<path d="M17.7728 19.874C17.5476 20.1157 17.425 20.4354 17.4308 20.7657C17.4366 21.096 17.5704 21.4111 17.804 21.6448C18.0376 21.8784 18.3528 22.0122 18.6831 22.018C19.0134 22.0238 19.3331 21.9012 19.5748 21.676L27.2248 14.026C27.4635 13.7869 27.5977 13.4629 27.5977 13.125C27.5977 12.7871 27.4635 12.4631 27.2248 12.224L19.5748 4.57399C19.3331 4.34878 19.0134 4.22617 18.6831 4.232C18.3528 4.23782 18.0376 4.37163 17.804 4.60524C17.5704 4.83884 17.4366 5.15399 17.4308 5.48431C17.425 5.81462 17.5476 6.1343 17.7728 6.37599L23.2468 11.85L12.7238 11.85C10.1313 11.85 7.64498 10.8201 5.81181 8.98696C3.97864 7.15379 2.94878 4.66748 2.94878 2.07499C2.94878 1.73684 2.81445 1.41254 2.57534 1.17343C2.33623 0.934325 2.01193 0.799994 1.67378 0.799994C1.33563 0.799994 1.01133 0.934325 0.772217 1.17343C0.533108 1.41254 0.398779 1.73684 0.398779 2.07499C0.398779 5.34379 1.6973 8.4787 4.00869 10.7901C6.32008 13.1015 9.45499 14.4 12.7238 14.4L23.2468 14.4L17.7728 19.874Z" fill="#8C52FF"/>
</svg>
